Coordinates
version=1
nRows=6
nColumns=36
inDegrees=yes

Units are S.I. units (second, meters, Newtons, ...)
If the header above contains a line with 'inDegrees', this indicates whether rotational values are in degrees (yes) or radians (no).

endheader
time	pelvis_tilt	pelvis_list	pelvis_rotation	pelvis_tx	pelvis_ty	pelvis_tz	hip_flexion_r	hip_adduction_r	hip_rotation_r	knee_angle_r	knee_angle_r_beta	ankle_angle_r	subtalar_angle_r	mtp_angle_r	hip_flexion_l	hip_adduction_l	hip_rotation_l	knee_angle_l	knee_angle_l_beta	ankle_angle_l	subtalar_angle_l	mtp_angle_l	lumbar_extension	lumbar_bending	lumbar_rotation	arm_flex_r	arm_add_r	arm_rot_r	elbow_flex_r	pro_sup_r	arm_flex_l	arm_add_l	arm_rot_l	elbow_flex_l	pro_sup_l
     29.63333330	     10.35723441	     -5.29563318	    183.24288063	      0.44010882	      0.83725611	      0.76923081	     34.04234425	    -14.69885665	     -5.09743492	     19.76755356	      0.34500889	    -11.49724455	      0.60951487	     -7.49999987	     30.14095750	      1.76674076	     -2.04145526	     26.40113903	      0.46078680	     -6.96489069	     -2.34727794	     -7.49999987	     -6.51319127	     -6.20318936	     -2.39441131	      4.60098113	     -6.88933082	      2.64161542	     16.27067385	     84.83861254	     16.78241656	    -11.83128040	      7.33347986	     16.24735875	     93.93443833
     29.65000000	     10.65509407	     -5.76116445	    183.40755008	      0.44038261	      0.83504069	      0.76840311	     33.21267684	    -15.47257911	     -3.98557967	     17.20474755	      0.30027949	    -11.00052431	      1.78749712	     -7.49999987	     30.14539760	      1.59936529	     -0.70929488	     26.06190041	      0.45486597	     -3.29553006	     -2.66100586	     -7.49999987	     -6.49656336	     -6.84652493	     -2.26285070	      4.49332872	     -6.07360982	      3.15611982	     15.96946264	     84.76351197	     16.94235781	    -11.49155076	      7.99794037	     15.76353336	     93.64132878
     29.66666670	     11.02232123	     -5.92635995	    183.78649341	      0.44019031	      0.83442207	      0.76773230	     32.87437585	    -15.96793971	     -2.99052206	     16.93378236	      0.29555026	     -9.85401240	      2.41931645	     -7.49999987	     30.37086574	      1.17883006	      0.71588841	     26.56269365	      0.46360646	     -0.35268177	     -2.93098012	     -7.49999987	     -6.25239900	     -7.36972197	     -1.55969412	      3.75671168	     -5.86119561	      5.16659888	     16.81771853	     84.86498867	     17.75174703	    -11.04875326	     10.77231999	     14.49239792	     94.39090448
     29.68333330	     11.07306565	     -5.39074337	    184.13425529	      0.44001104	      0.83571836	      0.76806028	     33.84117899	    -16.00002535	     -2.15259060	     18.94372258	      0.33063033	     -8.88491116	      2.35723086	     -7.49999987	     30.38011738	      0.24173300	      2.51231466	     27.38845450	      0.47801871	      1.80548178	     -3.08921691	     -7.49999987	     -6.85871385	     -6.90982329	     -1.73836565	      4.04464872	     -5.53896640	      5.36987928	     17.14012493	     83.47556369	     17.57603163	    -10.86406706	     11.23722419	     15.07166279	     92.46955106
     29.70000000	     11.31465261	     -4.94436624	    184.65210294	      0.43779456	      0.83394000	      0.76893018	     34.87591825	    -16.15296850	     -1.29606471	     21.67998738	      0.37838716	     -7.47110894	      2.47352023	     -7.49999987	     30.79770739	     -0.34337695	      4.36168737	     28.84853528	      0.50350192	      3.84531233	     -3.16820297	     -7.49999987	     -7.08952587	     -6.66084550	     -1.66360043	      3.73883501	     -5.43641968	      5.61232412	     18.29628069	     82.56572644	     17.32829964	    -10.72793601	     11.42800473	     16.09086622	     91.28846799
     29.71666670	     12.07491091	     -4.87952241	    185.35174180	      0.43298353	      0.82849853	      0.77004888	     35.12718591	    -16.61700018	     -0.76427855	     23.55734142	      0.41115317	     -4.73076904	      3.74745305	     -7.49999987	     31.62298533	     -0.30835484	      6.12475578	     30.76123512	      0.53688483	      6.23837737	     -3.69505763	     -7.49999987	     -6.04894672	     -7.00645784	     -1.75634130	      3.51511787	     -5.15615545	      6.32870061	     18.31931689	     82.79918064	     17.42588402	    -10.48598094	     12.01350496	     14.94099204	     91.56838874
